<?xml version="1.0" encoding="utf-8"?>
<!-- Generator: Adobe Illustrator 26.4.1, SVG Export Plug-In . SVG Version: 6.00 Build 0)  -->
<svg version="1.1" id="Ebene_1" xmlns="http://www.w3.org/2000/svg" xmlns:xlink="http://www.w3.org/1999/xlink" x="0px" y="0px"
	 viewBox="0 0 259.8 32.4" style="enable-background:new 0 0 259.8 32.4;" xml:space="preserve">
<style type="text/css">
	.st0{enable-background:new    ;}
</style>
<g class="st0">
	<path d="M159.3,2.7H3.3c-0.8,0-1.5,0.7-1.5,1.5v24.3c0,0.8,0.7,1.5,1.5,1.5h156c0.8,0,1.5-0.7,1.5-1.6V4.2
		C160.8,3.4,160.1,2.7,159.3,2.7z M17.7,25.6L12.6,19l-1.9,2.1v4.6h-5V7.3h5v7.6l6.9-7.6h5.6l-7.3,8.1l7.7,10.2
		C23.6,25.6,17.7,25.6,17.7,25.6z M38.7,25.6H25V7.3h5.1v14.2h8.6V25.6z M55,25.6H40.6V7.3h14.1v4h-9v3.1h8v3.9h-8v3.4l9.3-0.1
		C55,21.6,55,25.6,55,25.6z M62.9,25.7h-5.1V7.3h5.1V25.7z M83.6,25.7h-4.2l-7.9-9.8v9.8h-5V7.3h4.2l7.9,9.8V7.3h5V25.7z
		 M101.5,25.6H87.1V7.3h14.1v4h-9v3.1h8v3.9h-8v3.4l9.3-0.1V25.6z M113.6,21.7c1.7,0,3.1-0.8,4.2-2.2l3.2,3
		c-1.7,2.2-4.4,3.5-7.7,3.5c-5.7,0-9.9-3.9-9.9-9.5s4.2-9.5,9.9-9.5c3.3,0,6,1.2,7.7,3.5l-3.2,3c-1.1-1.4-2.5-2.2-4.2-2.2
		c-2.9,0-5,2.1-5,5.2S110.6,21.7,113.6,21.7z M135.2,25.6l-5.1-6.6l-1.9,2.1v4.6h-5V7.3h5v7.6l6.9-7.6h5.6l-7.3,8.1l7.7,10.2
		C141.1,25.6,135.2,25.6,135.2,25.6z M156.9,25.6h-14.4V7.3h14.1v4h-9v3.1h8v3.9h-8v3.4l9.3-0.1L156.9,25.6L156.9,25.6z"/>
	<path d="M182,25.8l-0.1-9.7l-4.6,7.9H175l-4.6-7.7v9.5h-4.7V7.5h4.2l6.3,10.6l6.1-10.6h4.2l0.1,18.4L182,25.8L182,25.8z"/>
	<path d="M204.7,21.8v4h-14.4V7.5h14.1v4h-9v3.1h8v3.9h-8v3.4L204.7,21.8L204.7,21.8z"/>
	<path d="M207.5,7.5h8.5c5.9,0,10,3.5,10,9.2c0,5.6-4.1,9.2-10,9.2h-8.5V7.5z M215.8,21.7c3,0,5.1-1.9,5.1-5s-2-5-5.1-5h-3.2v10.1
		h3.2V21.7z"/>
	<path d="M228.7,7.5h5.1v18.4h-5.1V7.5z"/>
	<path d="M249.4,22.3h-7.6l-1.4,3.6h-5.2l7.9-18.4h5l7.9,18.4h-5.2L249.4,22.3z M247.9,18.5l-2.3-5.9l-2.3,5.9H247.9z"/>
</g>
</svg>
