<?xml version="1.0" encoding="utf-8"?>
<!-- Generator: Adobe Illustrator 28.1.0, SVG Export Plug-In . SVG Version: 6.00 Build 0)  -->
<svg version="1.1" id="Ebene_1" xmlns="http://www.w3.org/2000/svg" xmlns:xlink="http://www.w3.org/1999/xlink" x="0px" y="0px"
	 viewBox="0 0 601.4 345.7" style="enable-background:new 0 0 601.4 345.7;" xml:space="preserve">
<style type="text/css">
	.st0{fill-rule:evenodd;clip-rule:evenodd;fill:#FFFFFF;}
	.st1{fill:#FFFFFF;}
</style>
<path class="st0" d="M290.3,205.7c5-3.6,7.6-7.6,10.2-11.7c9.5-14.8,15.4-31,19.5-48c0.8-3.5,0.9-9.9,5.5-9.2
	c4.8,0.7,2.3,6.7,2.1,10.1c-0.6,13.7-6.1,26-13.1,37.5c-6.9,11.3-14.2,22.2-21.2,33.5c-2.5,4.1-4.4,3.7-6.4-0.2
	c-4.1-8-5.1-16.7-6.7-25.3c-0.4-1.9-0.7-3.7-1.3-7.1c-3.3,7.1-5.8,12.8-8.6,18.4c-1.1,2.3-2,5.7-5.1,5.2c-3.1-0.5-3-4.1-3.4-6.5
	c-1.4-8.4-2.6-16.9-3.4-25.4c-0.8-8.3-3.1-15.8-8.5-22.4c-2.1-2.5-3.8-5.4-5-8.5c-1.2-3.1,0-5.5,2-7.1c2.3-1.9,3.9,0.9,5.4,2.2
	c4.8,4.5,7.6,10.2,9.4,16.4c2.7,9.3,3.5,18.9,5.4,28.9c3.4-2.3,3.3-6.1,4.9-9c2-3.7,2.3-10.2,7.3-9.8c5.2,0.4,5.4,6.9,6.3,11.2
	C287.5,187.5,288.7,196.1,290.3,205.7z"/>
<path class="st0" d="M13,189.5c-0.9,6.8-1.9,13.5-2.9,20.8c-3.6-1.9-4.5-4.8-4.5-7.7c0.4-20-2.8-39.7-3.8-59.6
	c-0.1-2.6-0.6-6.3,2.5-6.6c3-0.3,4.3,2.9,4.6,6.1c0.7,8.1,1.5,16.2,2.3,24.2c0.2,1.8-0.2,4,1.6,4.7c1.9,0.8,3.2-1.2,4.4-2.3
	c6.2-5.8,15.5-8.8,17.1-19c0.4-2.3,2.5-2.4,4.7-1.3c7.7,3.8,8,11.3,0.4,16.5c-5.1,3.5-10.5,6.4-14.9,10.8c-2.9,2.9-3.4,4.5,0.9,6.5
	c8.2,3.9,16.5,7.4,25,10.3c2.5,0.8,5,1.7,7.3,3c3,1.7,3.3,4.7,2,7.5c-1.2,2.6-3.5,2.9-6.2,1.7c-9.1-3.8-18.3-7.5-27.4-11.3
	C21.9,192.2,17.8,190.1,13,189.5z"/>
<path class="st0" d="M399.9,185.2c6.1-4.4,11.6-8.7,17.4-12.7c2.2-1.6,4.9-4,7.5-0.9c2.7,3.2-0.2,5.3-2.2,7.2
	c-3.8,3.6-7.9,7-11.9,10.5c-2.4,2-2.2,3.4,0.6,4.8c3.8,1.8,7.5,3.6,11.2,5.6c2.7,1.4,5.3,3,6.8,6c0.9,2,1.2,4.1-0.2,5.6
	c-1.3,1.4-2.8-0.3-4.1-0.9c-5.3-2.1-10.7-4.1-15.9-6.5c-5-2.3-8.1-1.9-8.6,4.4c-0.1,1-0.7,1.9-1.2,3.1c-3.2-1.9-3.9-4.7-3.7-7.5
	c0.6-13.2-3.5-25.6-7-38.1c-1-3.6-3.6-9.7,0-10.5c4.3-1,4.8,5.6,6,9.3C396.7,171,398.1,177.9,399.9,185.2z"/>
<path class="st0" d="M438,184c5.6,3.5,11.6,5,17.3,7.3c4.5,1.8,8.7,4,8.5,9.6c-0.2,6-4,8.8-9.8,9.7c-6.6,0.9-13.1,1.2-19.6-0.4
	c-1.6-0.4-2.9-1.3-2.8-3.2c0.2-2.3,2.1-1.8,3.5-1.8c6.6,0,13.4,0.8,18.6-5c-5.8-3.3-12.5-4.6-17.9-8.5c-6.6-4.8-6.7-9.1-0.1-14
	c5.1-3.7,11.2-5.1,17.1-6.6c2.7-0.7,4.7,0.1,6.2,2.5c1.3,2,1.8,4.3,0.6,6.2c-1.3,2.2-4,1.5-6.1,1.2C448.2,180.1,442.9,180,438,184z"
	/>
<path class="st0" d="M580.7,211.1c-6.6-6-5.6-13.6-6.4-20.7c-0.2-2.4-0.5-4.7-0.8-7.1c-0.6-3.9-2.3-5-5.8-3.6
	c-3.7,1.4-6.8,0.9-7.8-3.2c-1-4.1,1.2-7,5.4-7.4c5.7-0.5,6.6-4,6.6-8.7c0-5.2-0.7-10.6,1.1-15.7c0.5-1.5,1.5-3.2,3-3.1
	c1.8,0,1.8,2.1,2.3,3.5c1.2,3.6,1.1,7.2,0.2,11c-1.7,6.9,0,8.5,6.8,7c2-0.4,4.2-1.1,5.5,0.6c1.8,2.3,4.5,5.1-0.8,6.9
	c-12.1,4.1-10.8,8.6-9.3,18.1C582,196,583.7,203.4,580.7,211.1z"/>
<path class="st0" d="M187.9,211.5c-7.3-6.2-5.7-14.3-6.9-21.4c-0.4-2.1-0.5-4.3-0.7-6.5c-0.3-3.7-2.1-5.2-5.8-3.8
	c-4,1.5-7.3,0.7-8-3.8c-0.6-4.2,2.1-6.6,6.2-6.9c5-0.5,5.9-3.7,6-7.8c0.1-5.3-0.7-10.6,1-15.7c0.6-1.8,1.5-3.7,3.3-3.7
	c1.7,0,1.7,2.1,2.2,3.6c1.4,3.9,0.8,7.7,0,11.6c-1.3,6,0.6,7.8,6.6,6.3c3.8-1,6.5-0.6,7.7,3.5c1.3,4.3-2.7,3.9-4.7,4.8
	c-7.3,3.1-9.3,6.1-7.7,14.4C188.5,194,189.9,202.2,187.9,211.5z"/>
<path class="st0" d="M483.7,211.1c-7.2-5.7-5.4-14-6.7-21.3c-0.3-1.7-0.4-3.5-0.4-5.2c-0.2-4.4-1.9-6.7-6.7-4.8
	c-3.6,1.4-6.4,0.2-7.3-3.4c-1-3.8,1-6.8,4.8-7.2c6.6-0.7,7.5-4.8,7.5-10.2c0-4.6-0.7-9.3,0.8-13.8c0.5-1.6,1.2-3.7,3.2-3.6
	c1.9,0.1,1.8,2.3,2.3,3.6c1.1,3.4,1,6.9,0.2,10.4c-1.7,7.5-0.5,8.9,6.9,7.2c2.3-0.5,4.7-0.8,6,1.3c1.4,2.2,3.3,4.6-1.3,6.5
	c-10.9,4.5-11.5,6.1-9.4,18.1C484.8,196.2,486.1,203.4,483.7,211.1z"/>
<path class="st0" d="M548.7,211.2c-6.9-5.7-5.6-13.4-6.6-20.4c-0.3-2.2-0.6-4.3-0.6-6.5c-0.1-4.3-2-6.1-6.3-4.5
	c-3.9,1.5-6.8,0.3-7.5-3.7c-0.7-3.8,1.3-6.6,5.3-6.9c5.9-0.5,6.9-4.2,7-9.2c0.1-5.2-0.9-10.6,1.2-15.7c0.5-1.2,1.2-2.6,2.6-2.7
	c1.7-0.1,1.8,1.7,2.2,2.8c1.6,4.1,1.2,8.2,0.3,12.3c-1.4,6.1,0.4,7.9,6.3,6.5c3-0.7,5.7-1.5,7.4,1.9c1.2,2.3,1.8,4-1.7,5.5
	c-11.4,5-11.7,6-9.5,18.6C549.9,196.4,551.3,203.5,548.7,211.2z"/>
<path class="st0" d="M230.5,195.6c7.3-10.1,6.2-23.7,15.3-33c1.8,3.4,0.7,5.8,0.1,8.3c-2.7,11.8-6.3,23.4-11.8,34.2
	c-1,2-2.1,5.1-4.9,4.7c-2.7-0.4-3-3.3-3.7-5.7c-2.8-10.4-3.8-21.3-8.8-31c-1.2-2.3-1.7-5.8,1.2-7c3.4-1.3,4.5,2.2,5.2,4.6
	c2.1,6.9,3.8,14,5.7,21C229.1,193,229.8,194.1,230.5,195.6z"/>
<path class="st0" d="M371.7,200.1c0,2.2,0,4.4,0,6.6c0,1.7,0.5,3.8-1.9,4.3c-2.4,0.5-3.6-1.3-4.4-3.2c-1.7-3.6-2.4-7.5-2.7-11.5
	c-0.2-3.9-1-7.8-1.3-11.7c-0.3-3.4,0.4-6.5,4.8-6c3.3,0.4,3.5-2.8,5.4-4c3-1.9,5.3-5.8,9.8-4c4.4,1.7,6.1,5.5,7.1,9.7
	c0.5,2.1,0.6,4-2.9,3.2c-9.6-2.1-13.7,1.4-13.9,11.3C371.7,196.5,371.7,198.3,371.7,200.1z"/>
<path class="st0" d="M72.6,200.7c0,1.1,0.2,2.2,0,3.3c-0.5,2.4,1.5,6.2-1.9,6.8c-4,0.8-4.7-3.4-5.5-6.2c-2-7-2.1-14.3-2.6-21.5
	c-0.1-1.6,0.1-3.9,1.7-3.8c5.6,0.1,7.9-4.8,11.6-7.4c2.9-2,5.6-2.5,8.4-0.3c3.3,2.6,5,6,5,10.3c0,1.4-0.7,1.7-2.1,1.7
	c-12.5-0.5-14.8,1.8-14.7,14.5C72.6,198.9,72.6,199.8,72.6,200.7z"/>
<path class="st0" d="M214.6,211.5c-3.1-2.3-4.3-5-4.6-8.1c-0.9-8.5-2.9-16.8-5.1-25c-0.4-1.7-0.4-3.5-0.4-5.2c0-1.7,0-3.9,2.2-4.2
	c1.9-0.2,3.6,1.2,3.9,2.9c2,11.8,5.5,23.4,5.2,35.5C215.7,208.6,215.1,209.8,214.6,211.5z"/>
<path class="st0" d="M203.3,160.9c-4.4-0.7-8.2-2.4-8.4-7.5c-0.1-2.5,0.8-5.5,4.5-5.2c3.1,0.2,10.5,7.4,9.9,9.7
	C208.5,160.8,205.6,160.4,203.3,160.9z"/>
<path class="st0" d="M528.1,199.8c-0.9-8.1-1.2-16.2-3-24.1c-2.5-11.1-16.2-14.7-24.7-7c-3.6,3.2-3.6,7.1-1.3,10.7
	c2.6,3.8,5.1,0.3,7.2-1.1c7.7-5,11.5-3.4,13.5,6c-2.2,1-4.3-0.1-6.4-0.4c-9.6-1.3-18.5,4.1-20.7,12.4c-2.3,8.8,4.3,16.2,13.2,14.3
	c5.8-1.2,11.5-3,17.3-4.3C526.8,205.6,528.5,203.4,528.1,199.8z M503.4,201.8c-3-1-3.4-2.3-1.3-4.5c4.8-5.2,10.6-4.2,17-2.6
	C515.1,201.2,509.3,203.6,503.4,201.8z"/>
<path class="st0" d="M167.1,198.7c-0.2-2.4-0.4-4.8-0.8-7.2c-1.1-5.8-0.6-11.9-2.8-17.5c-3.8-9.9-18.4-12.6-25.1-4.6
	c-2.7,3.3-2.7,7.2-0.1,10.2c2.7,3.1,5-0.5,7.3-1.7c1.2-0.6,2.1-1.6,3.3-2.1c3.1-1.3,5.6,0,7.6,2.4c1.3,1.5,2.9,3.6,1.8,5.3
	c-1.6,2.8-4.3,0.5-6.5,0.3c-11.1-1.2-19.6,5.4-20.2,15.6c2.6,2.1,1.3,5.5,2.8,8.1c3.2,3.3,6.9,4.2,11.3,2.9c5.3-1.5,10.6-2.8,16-4
	C166.2,205.5,167.4,202.7,167.1,198.7z M144.1,202.1c-1.6-0.2-3.8-0.3-4.2-2.3c-0.4-2,1.5-3.2,2.8-4.1c4.8-3.4,9.9-2.6,15.3-1
	C155.4,201,150.3,202.7,144.1,202.1z"/>
<path class="st0" d="M131.7,199.5c-5.8-0.6-11.2,1.6-16.8,2.6c-4.1,0.7-8.5,0.8-12.3-1.4c-3.1-1.8-5-4.6-3.9-8.3
	c1.1-3.6,4.2-2.3,6.7-2c7.5,0.8,13.9-1.5,19.4-6.5c3.4-3.1,5.5-7,3.7-11.8c-1.7-4.6-5.9-4.7-9.9-4.7C105.2,167.5,92,179.7,91,193
	c-0.4,6,0.9,11.4,6.9,14.5c9.5,5.1,25.6,3.2,33.4-4c1.2,1.2,1.3,3.3,3.2,4C134.8,204.4,138.1,200.2,131.7,199.5z M116.1,174.5
	c1.8-0.3,4.5-0.7,5,1.8c0.4,1.9-1.2,3.7-3,4.7c-4.3,2.5-9,1-14.9,1.6C106.9,176.8,111.4,175.3,116.1,174.5z"/>
<path class="st0" d="M359.4,200.7c-1-1.6-2.7-1.5-4.2-1.2c-2.2,0.4-4.3,0.9-6.4,1.5c-5,1.6-10,1.9-14.9,0.4c-3.8-1.2-6.7-4-5.9-8.4
	c0.9-4.7,4.6-2.7,7.4-2.5c8.9,0.4,16.7-2.3,21.5-10.1c4.2-6.8,0.5-12.9-7.5-13c-11.5-0.2-19.7,5.7-25.4,15
	c-8.9,14.6-2.3,26.8,14.7,27.9c1.5,0.1,3.1,0,5.7,0c4.5,0.2,10,0.3,14-4.7C359.6,204.1,360.5,202.5,359.4,200.7z M346.4,174.4
	c1.8-0.2,4.2-0.2,4.4,1.7c0.3,1.8-1.2,3.7-3,4.7c-4.5,2.6-9.3,1.2-15.2,1.6C336.7,176.8,341.2,174.9,346.4,174.4z"/>
<path class="st1" d="M440.2,227.5c0-0.2-0.4-1.1-0.6-1.8c-0.3-0.5-0.7-1.6-0.8-1.8c-0.3-0.5-0.8-1.1-1.1-1.7
	c-0.8-0.9-1.7-1.9-2.6-2.7c0,0,0,0,0,0c-0.4,0-0.7-0.1-1.1-0.2c-2.2-0.4-4.2-1.5-5.9-2.9c-1.7,0.5-3.6,0.7-5.5,0.6
	c-0.1,0-0.2,0-0.2,0c-2-0.3-4.1-0.5-6.1-0.8c-0.1,0-0.2,0-0.3-0.1c-0.2-0.1-0.5-0.1-0.7-0.2c-0.2-0.1-0.3-0.1-0.5-0.2
	c-1.8-0.4-3.6-1-5.3-1.8c-0.2,0-0.4,0-0.6,0c-0.4,0-0.8,0-1.1,0c-1.9,0.8-3.9,1.3-6,1.5c-2,1.4-4.3,2.4-6.7,3.1c-0.1,0-0.1,0-0.2,0
	c-3.9,2.9-8.7,4.6-13.6,4.6c-1.2,0-2.3-0.1-3.4-0.3c-5.6,5-7.8,13.8-16.9,14.8c-0.3,0-0.7,0.8-0.7,1.2c0.1,4.7-4,5.8-6.9,7.7
	c-17.8,11-37.8,17-57.2,24.5c-2.1,0.8-4.6,1.2-6.9,1.2c-6.3,0-12.2,1.7-18.1,3.3c-1.4,0.4-2.9,1-4.4,0.8c-13.8-1.2-27.6-0.2-41.4-1
	c-24-1.3-43.5-22.4-43.5-46.1l-0.7-4.8c-1.4,0.1-2.8,0.3-4.2,0.4c-2.6,0.4-5.3,0.5-7.9,0.5c-2.6,0-5-0.4-7.3-1.2
	c-2.3,0.9-4.7,1.3-7.3,1.2h-3.1c-0.8-0.2-1.6-0.4-2.4-0.7c-1,0.8-2,1.6-3.1,2.4c-0.3,0.9-0.5,1.8-0.8,2.8c-0.5,2.1-0.6,4-0.7,5.7
	c-0.7,1.2-1.4,2.4-2.3,3.5c1.1,15.5,6.6,29.3,14.7,42.4c7.7,12.5,15.5,24.9,26.4,34.9c17.6,16.3,40,19.9,62.5,22.6
	c14.9,1.8,29.9,1.3,44.8-0.6c8.6-1.1,17.4-1.5,25.4-4.8c7.7-3.2,17-1.1,23.7-8.1c2.5-2.7,7-3.7,10.8-5c20.7-7,38-19.7,54.9-32.8
	c3.1-2.4,6-5.4,7.3-9.4c1.8-5.8,4.6-10.6,10.8-12.5c0.9-0.3,1.3-0.9,1.4-1.8c0.4-4.2,4-5.4,6.9-6.8c1.7-0.8,2.8-1.1,2.9-3.2
	c0.4-8.5,2.9-16.3,6.4-23.8C440.8,229.4,440.5,228.4,440.2,227.5z"/>
<path class="st1" d="M267.9,85.5c-2.1-7-7.6-12.6-8.4-20.1c-0.1-1-0.9-1.3-1.8-1.4c-7.9-1-10.7-7.4-13.3-13.4
	c-1-2.3-0.7-4.6-4.1-4.7c-2.6,0-5.1-1.7-7.7,0.1c-3.8,2.7-8,4.9-11.5,7.9c-17.6,15.1-34.5,30.9-48,49.9
	c-10.1,14.2-19.6,28.5-24.7,45.3c1.5-0.3,3.1-0.5,4.4-0.3c4.1,0.5,8,1.3,11.8,2.3l0,0c0.9,0,4.3-0.2,7-2.8c1.4-1.4,2.1-2.9,2.5-3.8
	c1.5-5.1,4.1-6.2,4.9-6.5c2-0.8,4.8-0.1,10.4,1.3c1.1,0.3,2,0.5,2.6,0.7c1.2-0.2,2.5-0.3,3.8-0.3c2.7,0,5.2,0.5,7.5,1.3
	c1.1-0.7,2.3-1.2,3.5-1.6c2.7-1.4,5.7-2.1,8.9-2h1.5c0.6,0,1.6,0,2.7,0.2c1.6,0.2,2.1,0.6,2.8,0.5c1.9-0.2,2.9-3.6,3.2-4.4
	c1.7-4.8,8.7-3.9,18.2-13c4.7-4.5,10.7-8.2,16.2-12.2C270.1,101.5,271.5,97.1,267.9,85.5z"/>
<path class="st1" d="M439.1,162.4c0.5-0.3,1-0.6,1.5-0.9c0.3-0.5,0.7-0.9,1.1-1.3c0.6-0.7,1.4-1.4,2.1-2c0.2-0.4,0.4-0.8,0.6-1.2
	c-1.5-4.9-3.4-9.6-6-14.3c-3.5-6.3-5.8-13.5-5.6-21c0-1.1,0.4-2.8-1.2-2.8c-3.3-0.2-2.8-2.2-2.9-4.5c-0.1-3.3-0.6-7.7-3.5-8.8
	c-7.5-2.9-8.5-3.5-9.2-11.8c-0.2-2-0.2-4.2-2.4-5.1c-4.7-2.1-7.1-6.3-9.5-10.5c-2.5-4.3-4.2-9.2-7.9-12.7
	c-15.7-14.4-24.2-34-35.9-51.2c-2.4-3.5-4-6.7-8.3-7.7h-14c-5.9,2-11.7,4.5-18,4.8c-1.6,0.1-2.5,0.5-2.5,2.3c0,8-3.4,15.2-4.9,22.9
	c-1,4.8-1.6,9.5,0.9,14.1c1.7,3.2,4.1,6.1,4.1,10c0,1.5,1.2,1.6,2.5,1.8c4.2,0.8,8-0.5,12.7,2.5c5.5,3.6,13,2.9,19.4,8.1
	c7.1,5.7,13.4,11.7,16.4,19.7c6.8,18,12,36.3,15.6,55.1c0.3,0.2,0.6,0.3,0.9,0.5c1.7,0.9,3.1,2.1,4.2,3.6c0.2,0,0.5,0,0.7,0
	c0.2,0,0.4,0,0.6,0.1c0.4,0,0.7,0.1,1.1,0.1c0.2,0,0.4,0.1,0.5,0.1c0.5,0.1,0.9,0.2,1.4,0.3c0.1,0,0.1,0,0.2,0
	c2.1,0.5,4.1,1.3,6.1,2.5l0.7,0.6c0.3,0.2,0.7,0.5,1,0.7c2.5,1.2,4.8,2.9,6.7,4.9c1,0.2,2.1,0.3,3.1,0.6c1.1,0.1,2.2,0.3,3.2,0.7
	c1.7-0.4,3.4-0.6,5.1-0.6c2.6,0,5,0.4,7.3,1.2C430.8,162.3,435,162.1,439.1,162.4z"/>
</svg>
