<?xml version="1.0" encoding="utf-8"?>
<!-- Generator: Adobe Illustrator 28.1.0, SVG Export Plug-In . SVG Version: 6.00 Build 0)  -->
<svg version="1.1" id="Ebene_1" xmlns="http://www.w3.org/2000/svg" xmlns:xlink="http://www.w3.org/1999/xlink" x="0px" y="0px"
	 viewBox="0 0 594.7 577.7" style="enable-background:new 0 0 594.7 577.7;" xml:space="preserve">
<style type="text/css">
	.st0{fill:#FFFFFF;}
</style>
<g>
	<path class="st0" d="M348.6,9.5c4.3,1,5.9,4.2,8.3,7.7c11.8,17.2,20.2,36.8,35.9,51.2c3.7,3.4,5.4,8.3,7.9,12.7
		c2.4,4.2,4.8,8.4,9.5,10.5c2.2,1,2.2,3.1,2.4,5.1c0.7,8.3,1.8,8.9,9.2,11.8c2.9,1.1,3.3,5.5,3.5,8.8c0.1,2.3-0.5,4.3,2.9,4.5
		c1.6,0.1,1.2,1.8,1.2,2.8c-0.2,7.6,2,14.7,5.6,21c10.1,18.1,10.3,38.3,13.3,57.9c0.9,6-1.2,11.8-4.2,17.2
		c-6.3,11.4-12.3,22.9-12.9,36.3c-0.1,2.1-1.3,2.4-2.9,3.2c-2.9,1.4-6.5,2.6-6.9,6.8c-0.1,0.9-0.4,1.5-1.4,1.8
		c-6.2,2-8.9,6.8-10.8,12.5c-1.3,3.9-4.1,6.9-7.3,9.4c-17,13.2-34.2,25.9-54.9,32.8c-3.8,1.3-8.2,2.3-10.8,5c-6.6,7-16,4.9-23.7,8.1
		c-8,3.3-16.8,3.7-25.4,4.8c-14.9,1.9-29.9,2.3-44.8,0.6c-22.5-2.7-44.9-6.3-62.5-22.6c-10.9-10.1-18.7-22.4-26.4-34.9
		c-8.4-13.6-14-28.1-14.8-44.5c-0.4-8.1-2.8-16-4.2-24c-0.9-5-0.6-10,1.4-14.7c0.9-2.2,0.3-4.3,0.4-6.4c0.5-8.3,1.5-16.6,4.8-24.4
		c2-4.8,1.8-10.1,3.1-15.1c4.8-18.2,14.9-33.6,25.6-48.7c13.5-19,30.4-34.8,48-49.9c3.5-3,7.7-5.2,11.5-7.9c2.6-1.9,5.1-0.2,7.7-0.1
		c3.4,0,3.1,2.4,4.1,4.7c2.6,6.1,5.3,12.4,13.3,13.4c0.9,0.1,1.7,0.4,1.8,1.4c0.9,7.5,6.3,13.1,8.4,20.1c3.5,11.6,2.1,15.9-7.6,23
		c-5.5,4-11.5,7.6-16.2,12.2c-5.6,5.3-13.6,6.5-18.2,13c-4.5,6.4-9.6,12.3-14.4,18.5c-4.8,6.2-9.8,12.2-14.1,18.7
		c-11.3,17.3-14.9,36.8-15.6,57c-0.8,24.2,19.1,46.1,43.5,47.5c13.8,0.8,27.6-0.2,41.4,1c1.4,0.1,2.9-0.4,4.4-0.8
		c5.9-1.6,11.8-3.4,18.1-3.3c2.3,0,4.7-0.4,6.9-1.2c19.4-7.4,39.4-13.4,57.2-24.5c2.9-1.8,7-2.9,6.9-7.7c0-0.4,0.4-1.2,0.7-1.2
		c9.7-1.1,11.6-11.1,18.1-15.8c2.2-1.6,3.5-4.4,4.8-6.9c5.8-11,5.6-22.8,4.7-34.6c-2.5-30.2-9.3-59.4-20-87.6c-3-8-9.4-14-16.4-19.7
		c-6.3-5.1-13.9-4.5-19.4-8.1c-4.7-3.1-8.5-1.8-12.7-2.5c-1.2-0.2-2.5-0.3-2.5-1.8c0-3.9-2.4-6.9-4.1-10c-2.5-4.6-1.9-9.3-0.9-14.1
		c1.6-7.6,4.9-14.9,4.9-22.9c0-1.8,0.9-2.2,2.5-2.3c6.4-0.3,12.1-2.9,18-4.8C339.3,9.5,344,9.5,348.6,9.5z"/>
	<path class="st0" d="M6.7,369.4c5.2,0.1,10.3,0.4,15.4,0.1c3.4-0.2,4.1,1.1,4.1,4.2c-0.1,20.9,0,41.9-0.1,62.8
		c0,3.7,0.7,5.1,4.8,4.9c7.3-0.4,14.6,0,21.9-0.2c2.4,0,3.2,0.6,3.1,3.1c-0.4,4.8,1.9,10.8-0.9,14c-2.4,2.8-8.5,0.8-12.9,0.8
		c-11.8,0.2-23.6,0.1-35.4,0.2C6.7,429.4,6.7,399.4,6.7,369.4z"/>
	<path class="st0" d="M580.5,432.3c0.5-3.3-1-6.8,1-9.9c0,3.3,0,6.7,0,10C581.2,432.3,580.9,432.3,580.5,432.3z"/>
	<path class="st0" d="M325.9,94.1c-0.2,8.6,5.3,13.6,9.2,19.3c0.7,1.1,1.9,1.6,3,1.5c5.1-0.5,5.8,2.3,5.7,6.5
		c-0.1,2.2,0.7,4.6,1.6,6.7c7.1,16.8,6.4,34.4,5.7,52.1c-0.1,1.5,0.2,2.9,0.2,4.4c0,1,0.2,2.2-1.1,2.5c-8.2,1.8-12.3,8.5-17.1,14.2
		c-3.6,4.2-7.5,7.9-12.7,9.9c-1.2-0.8-0.8-1.9-0.7-2.8c0.1-3.6-1.5-3.5-4-2c-3.8,2.4-7.6,4.8-12,5.9c-11.6,3-20.6-2-27.8-10.4
		c-15.9-18.5-17.2-39.2-7.8-61.1c5.4-12.7,13.2-23.4,26.6-29c4.6-1.9,8.7-4.8,13-7.3c2.3-1.3,4.7-2.7,4.3-6
		c-0.1-1.1,0.4-2.3,1.6-1.7C318.2,99.1,321.7,96.4,325.9,94.1z"/>
	<path class="st0" d="M380.8,402.1c5.6-8.3,12.1-12,20.7-11.1c9.9,1,17.3,8.7,17.9,20.7c0.7,14.9,0.3,30,0.4,44.9
		c0,1.9-0.6,2.8-2.6,2.6c-0.5-0.1-1,0-1.5,0c-4.8-0.3-11,2-14-0.8c-3-2.9-0.8-9.1-0.9-13.9c-0.2-6.8,0-13.7-0.1-20.5
		c0-2.3-0.3-4.6-1-6.9c-1.1-3.5-2.7-6.5-6.9-6.8c-4.3-0.3-7.3,1.8-9.2,5.5c-2.5,4.9-2.7,10.3-2.8,15.6c-0.2,8-0.2,16,0,24
		c0.1,3-0.7,4.1-3.9,3.9c-3.6-0.3-7.3-0.3-11,0c-3.1,0.2-4-0.8-3.9-3.9c0.2-13.7,0.1-27.3,0.1-41c0-15.3,0.2-30.6-0.1-46
		c-0.1-4.6,1.3-5.7,5.6-5.3c3.3,0.3,6.7,0.2,10,0c2.7-0.2,3.3,0.8,3.3,3.4C380.7,377.8,380.8,389.1,380.8,402.1z"/>
	<path class="st0" d="M262.8,402.9c3.5-6.3,7.7-10.3,14-11.6c14.1-2.9,24.9,5.5,25.6,21c0.7,14.6,0.2,29.3,0.4,43.9
		c0,2.6-1.1,3-3.3,2.9c-4.2-0.1-8.3-0.2-12.5,0c-2.7,0.1-3.4-0.9-3.3-3.5c0.1-10,0.1-20,0-29.9c0-2.8-0.1-5.6-0.9-8.4
		c-1-3.5-2.5-6.6-6.6-7.1c-4.5-0.5-7.7,1.6-9.7,5.5c-2.5,4.9-2.6,10.3-2.7,15.6c-0.1,8-0.2,16,0,24c0.1,3.1-0.9,4.1-3.9,3.8
		c-4.9-0.5-11.5,2.1-14.3-1.1c-2.4-2.7-0.8-9.2-0.8-14c0-16,0.1-31.9-0.1-47.9c0-2.9,0.5-4.4,3.8-3.9c1.1,0.2,2.3,0,3.5,0
		C262,392.4,262,392.4,262.8,402.9z"/>
	<path class="st0" d="M492.1,433.7c0-6.8-0.2-13.6,0.1-20.5c0.1-3.5-0.6-5-4.6-4.8c-6.5,0.3-6.5,0-6.5-6.5c0-0.3,0-0.7,0-1
		c0-8.2,0-8.3,8-8.5c2.6,0,3.6-0.7,3.3-3.4c-0.2-1.8,0-3.7,0.1-5.5c0.8-16.3,10.6-24.2,26.9-21.9c4.1,0.6,6,1.9,5,6.2
		c-0.3,1.1-0.4,2.3-0.3,3.5c0.2,4.7-0.2,8-6.7,6.8c-4.3-0.8-8.7,9.4-6.2,13.5c1,1.5,2.7,0.7,4.1,0.8c9.1,0.2,9.1,0.1,9.1,9
		c0,1.2-0.1,2.3,0,3.5c0.3,2.7-0.5,3.7-3.5,3.7c-9.9,0.1-9.9,0.3-9.9,10.3c0,12.1-0.1,24.3,0.1,36.4c0,3-0.7,4.2-3.9,3.9
		c-4.9-0.5-11.3,2.1-14.3-1c-2.9-2.9-0.6-9.2-0.8-14C492,440.7,492.1,437.2,492.1,433.7z"/>
	<path class="st0" d="M350.5,410.7c-5.7-3.1-11.2-4.9-17.1-4.2c-2.5,0.3-5.2,0.7-5.8,3.8c-0.6,3.4,2,4.7,4.5,5.6
		c2.5,0.9,5.1,1.6,7.6,2.4c11.7,3.7,16.2,10.2,15.4,22.3c-0.7,10.8-6.7,17.7-17.9,19.4c-7.9,1.2-15.9,0.9-23.8-1.4
		c-2.6-0.8-3.6-1.7-3.1-4.5c0.5-2.9,0.5-6,0.4-9c-0.1-3.5,0.5-4.9,4.4-3c4.3,2.1,9.2,3.1,14,3c3-0.1,6.3-0.4,6.9-4.3
		c0.6-3.6-1.6-5.5-4.7-6.7c-2.5-0.9-5-1.8-7.5-2.7c-10.5-3.7-14.7-9.6-14.3-20c0.4-9.8,6.5-17.5,16.1-19.7
		c7.8-1.7,15.5-0.9,23.1,1.6c2.3,0.8,3.2,1.9,2.8,4.4C351.2,401.7,350.9,405.9,350.5,410.7z"/>
	<path class="st0" d="M476.1,411.2c0,14.6-0.1,29.3,0.1,43.9c0,3.3-0.9,4.4-4.2,4.1c-4.6-0.4-10.6,1.4-13.5-0.9
		c-3.1-2.4-0.9-8.7-1-13.3c-0.1-25.8,0-51.6-0.2-77.4c0-3.8,1-5,4.7-4.5c4.6,0.6,10.7-2,13.3,1c2.3,2.6,0.8,8.6,0.8,13
		C476.1,388.6,476.1,399.9,476.1,411.2z"/>
	<path class="st0" d="M447.8,425.5c0,9.6-0.1,19.3,0.1,28.9c0.1,3.5-0.4,5.3-4.5,4.8c-4.7-0.6-11.1,2.1-13.8-1.1
		c-2.3-2.7-0.8-8.9-0.8-13.5c0-16.1,0.1-32.3-0.1-48.4c0-3,0.6-4.2,3.8-3.9c3.8,0.3,7.7,0.3,11.5,0c3-0.2,4,0.6,3.9,3.8
		C447.6,405.9,447.8,415.7,447.8,425.5z"/>
	<path class="st0" d="M239.9,515.8c1.5-1.8,2.1-2.8,2.9-3.5c3.8-3.3,8.2-3.4,12.6-1.7c4.2,1.6,6.1,5.2,6.2,9.4
		c0.3,9.3,0.2,18.6,0.2,27.9c0,1.5-0.2,2.5-2.1,2.5c-1.9,0-2.6-0.6-2.6-2.6c0.1-7.6,0.2-15.3,0-22.9c-0.1-3.7,0-7.9-4.5-9.7
		c-5.2-2.2-10.8,0.8-12,6.8c-1.7,8.2-0.4,16.6-0.8,24.9c-0.1,1.2,0.8,3-1,3.4c-1.7,0.3-4.1,1.1-4-2.4c0.1-17.3,0.1-34.6,0-51.9
		c0-2,0.7-2.5,2.6-2.6c2,0,2.5,0.8,2.5,2.6C239.8,502,239.9,508.2,239.9,515.8z"/>
	<path class="st0" d="M104.3,543.1c4.4,1.4,8.8,2.8,13.6,2.3c3.8-0.4,6.8-2.1,7.7-6c0.9-3.9,0.6-7.8-3.2-10.2
		c-2.9-1.9-6.1-3.3-9.2-4.9c-5.8-3.1-8.8-7.7-8.7-14.5c0.2-8.6,5-13.6,13.6-13.7c3.5,0,6.9,0.6,10.2,2.1c2.6,1.1,0.8,2.7,0.6,4.2
		c-0.3,2.2-1.4,1.5-2.8,1c-2-0.7-4.1-1.4-6.2-1.7c-4.2-0.5-8.1,0.3-9.9,4.8c-1.7,4.2-0.2,8.9,3.7,11.4c3.1,2,6.5,3.3,9.6,5.2
		c6.7,3.9,9.2,10.2,7.2,17.9c-1.6,6.1-6.9,10-14.3,10.2c-2.3,0.1-4.6-0.4-6.9-0.6C104.6,550.1,102.8,547.9,104.3,543.1z"/>
	<path class="st0" d="M160.5,545.7c-4,5.1-9,6.6-14.8,4.6c-5.9-2.1-6.9-7.1-7-12.5c-0.1-8.1-0.1-16.3-0.1-24.5
		c0-1.7-0.3-3.2,2.4-3.3c2.9,0,2.7,1.7,2.6,3.6c0,7.3-0.1,14.6,0,22c0.1,7.2,2.2,10.3,7.2,10.5c5.4,0.3,9.3-3.2,9.7-9.8
		c0.5-7.5,0.2-15,0.2-22.4c0-1.9-0.6-4,2.7-3.8c3.3,0.1,2.2,2.3,2.2,3.8c0.1,10.5,0.1,21-0.1,31.4c0,1.6,1.7,4.2-1.4,4.9
		C160.6,551.2,161.9,547.6,160.5,545.7z"/>
	<path class="st0" d="M294.4,545.9c-1.6,1.7-3.2,3.4-5.4,4.3c-7.7,3.1-15.5-1-16.1-9.4c-0.7-9.4-0.3-18.9-0.5-28.4
		c0-2.2,1.1-2.3,2.8-2.3c2.2,0,2.2,1.3,2.3,2.9c0,8.5,0,17,0.2,25.4c0.1,4.1,2,7.1,6.4,7.5c4.4,0.4,7.8-1.4,9.4-5.7
		c0.9-2.3,1.2-4.8,1.2-7.3c-0.1-6-0.2-12,0.1-18c0.1-1.8-1.9-5,2.6-4.9c4,0.1,2.2,3,2.3,4.7c0.2,10.3,0.2,20.6,0,30.9
		c0,1.5,1.9,4.2-1.7,4.6C294.3,550.7,296,547.5,294.4,545.9z"/>
	<path class="st0" d="M355,514.9c5-5.2,9.9-6.7,15.2-4.5c5.7,2.4,6.6,7.4,6.6,12.8c0,7.6,0.1,15.3,0,22.9c0,1.6,1.2,4.3-2.4,4.1
		c-3.6-0.2-2.1-2.8-2.1-4.4c-0.2-7,0.1-14-0.1-20.9c-0.2-7-2.2-9.8-7-10.2c-5.5-0.5-9.3,2.7-9.9,9.4c-0.6,7.3-0.2,14.6-0.4,21.9
		c0,1.6,1.4,4.2-2.3,4.2c-3.9,0.1-2.6-2.7-2.6-4.5c-0.1-10.1-0.1-20.3,0.1-30.4c0-1.7-1.8-4.7,1.7-5.3
		C355.2,509.7,353.6,513.3,355,514.9z"/>
	<path class="st0" d="M459.9,515.4c2.2-3.4,5.1-5.2,8.7-5.8c6.7-1.1,12.4,3,12.8,10c0.5,9.4,0.2,18.9,0.3,28.4
		c0,1.7-0.5,2.3-2.3,2.4c-2.1,0.1-2.5-0.9-2.4-2.7c0.1-6.5,0-13,0-19.5c0-1.8-0.1-3.6-0.2-5.5c-0.2-4.5-2.2-7.6-7.1-7.9
		c-4.7-0.3-8.1,2.3-9.2,7.3c-1.7,8.2-0.4,16.6-0.8,24.9c-0.1,1.5,0.8,3.4-2.1,3.4c-2.6,0-2.9-1.1-2.9-3.3c0.1-11.1,0-22.3,0.1-33.4
		c0-1.3-0.9-3.1,1.5-3.5c2.4-0.4,2.7,1.2,2.9,2.9C459.4,513.7,459.6,514.3,459.9,515.4z"/>
	<path class="st0" d="M438.1,381.5c-9.3,0-9.3,0-9.3-8.9c0-8.2,0-8.2,8.5-8.2c10.5,0,10.5,0,10.5,10.2c0,6.8,0,6.8-6.7,6.8
		C440.1,381.5,439.1,381.5,438.1,381.5z"/>
	<path class="st0" d="M214.2,528.7c0-3.3,0-6.6,0-10c0-2,0.4-3.9-2.8-4c-2.6-0.1-2.4-2.4-0.8-3.1c3.7-1.6,4.4-4.6,5-7.9
		c0.3-1.3,0.4-2.9,2.3-2.6c1.7,0.3,1.3,1.9,1.1,2.8c-1,5.5,1.6,7,6.5,6.2c1.7-0.3,3.2-0.2,3.1,2.4c-0.1,2.8-1.9,2.4-3.4,2.1
		c-5.5-1-6.7,1.6-6.3,6.5c0.4,5.8,0,11.6,0.1,17.4c0.2,5.7,1.9,7.2,7.6,7.2c1,0,2.1-0.5,2,1.1c0,1.4,0.6,2.8-1.5,3.6
		c-5.5,2.2-11.8-1.2-12.5-7.5c-0.5-4.8-0.1-9.6-0.1-14.4C214.5,528.7,214.4,528.7,214.2,528.7z"/>
	<path class="st0" d="M314.8,517.1c2.9-4.7,5.8-7.9,11-7.6c1.3,0.1,3,0.3,2.5,2.2c-0.3,1.3,0.5,3.3-2.2,3.7
		c-8.1,1.1-11.2,4.7-11.3,13.1c-0.1,6.1,0,12.3,0,18.4c0,1.8,0.5,3.6-2.5,3.6c-3,0-2.5-1.9-2.5-3.7c0-10.8-0.1-21.6,0.1-32.4
		c0-1.5-1.3-4,1.8-4.2c3.1-0.3,2.2,2.2,2.5,3.8C314.3,514.8,314.5,515.6,314.8,517.1z"/>
	<path class="st0" d="M339.7,530.8c0,5.5,0,11,0,16.5c0,1.7,0.2,3.2-2.4,3.1c-2.6-0.1-2.4-1.5-2.4-3.2c0-11.3,0-22.6,0-34
		c0-1.9,0.1-3.1,2.6-3.1c2.8-0.1,2.3,1.7,2.3,3.3C339.7,519.2,339.7,525,339.7,530.8z"/>
	<path class="st0" d="M334.4,499.5c0-2,0.3-3.9,2.7-4.1c2.4-0.1,2.9,1.7,3,3.7c0.1,2-0.4,3.9-2.7,4.1
		C335,503.4,334.6,501.4,334.4,499.5z"/>
	<path class="st0" d="M160.6,498.8c0,2.2-0.6,3.9-2.6,4c-2.5,0.1-2.8-1.8-2.8-3.8c0-1.9,0.7-3.5,2.8-3.4
		C159.9,495.7,160.5,497.3,160.6,498.8z"/>
	<path class="st0" d="M291.9,495.5c2.2,0.6,2.8,2.2,2.6,4.2c-0.2,1.9-1.1,3.3-3.1,3.1c-2.1-0.3-2.3-2.1-2.3-3.8
		C289.1,497,289.9,495.8,291.9,495.5z"/>
	<path class="st0" d="M283.2,499c-0.1,1.7-0.2,3.6-2.4,3.8c-2.4,0.2-3-1.5-3.1-3.6c-0.1-1.9,0.7-3.5,2.7-3.6
		C282.5,495.5,283.2,497.1,283.2,499z"/>
	<path class="st0" d="M149.3,499c0,1.7-0.2,3.6-2.4,3.7c-2.4,0.2-3-1.6-3.1-3.6c-0.1-1.9,0.8-3.4,2.7-3.5
		C148.5,495.5,149.2,497.1,149.3,499z"/>
	<path class="st0" d="M198.8,510.3c1.1,1.2,0.8,2.7,0.6,4c-0.3,1.4-1.1,1.2-1.6-0.1C199.3,513.2,198.1,511.5,198.8,510.3z"/>
	<path class="st0" d="M581.6,419.4c-1.7-2.1-1.4-4.9-2.1-7.3c-5.4-20.9-28.2-28.5-44.1-14.5c-7.5,6.6-10,15.5-10.5,25.1
		c-1.6,31.7,22.1,44.6,48.7,35c1.8-0.6,2.8-1.4,2.7-3.5c-0.1-4.4,0-8.9,0-13.8c-2.7,1.1-4.8,2.3-7.1,3c-2.4,0.8-4.8,1.3-7.3,1.7
		c-7.5,1-14.1-1.9-16.6-7.4c-2-4.4-1.6-5.1,3.2-5.1c10.7-0.1,21.3-0.1,32-0.2c1.4-3.2-0.4-6.7,1-9.9
		C581.6,421.4,581.6,420.4,581.6,419.4z M564.4,418.1c-0.3,1.5-1.3,1.2-2.2,1.2c-6.1,0-12.2,0-18.4,0c0.4-3.4,0.8-6.3,2.4-9
		c2.6-4.4,6.9-5.9,11.5-4.1C561.4,407.7,565.2,414.6,564.4,418.1z"/>
	<path class="st0" d="M172.2,400.2c-5.6-8.1-13.7-11.1-23-8.7c-4.6,1.2-8.1,4.1-12,9c0-8.7,0.1-15.9,0-23.1
		c-0.1-4.6,2-10.9-0.9-13.4c-2.8-2.3-8.9-0.4-13.5-0.9c-3.8-0.4-4.7,1-4.6,4.7c0.2,27.8,0.1,55.6,0.1,83.4c0,8,0,8,8.2,8
		c8.9,0,8.9,0,9.2-8.5c0-0.5,0.1-1,0.8-1c8.9,15.1,27.4,13.3,35.6,1.6C181.1,438.1,181.4,413.5,172.2,400.2z M156.6,437.7
		c-4.1,6.6-11.3,6.8-15.9,0.6c-4.7-6.4-4.8-18.5-0.2-24.9c4.6-6.4,12.1-6.2,16.3,0.6c1.8,2.9,2.9,7.1,2.8,12.7
		C159.4,429.6,158.9,433.9,156.6,437.7z"/>
	<path class="st0" d="M113.3,428.7c-0.4-6.7-0.7-13.3-2.9-19.7c-3.6-10.3-10.3-17.1-21.5-18.1c-11.5-1-21.3,2.8-27,13.3
		c-7.3,13.6-7.6,27.9-0.2,41.6c7.1,13.1,22.1,17.9,39.4,13.3c7.2-1.9,7.2-1.9,7.2-9.3c0-3,0-6,0-9.9c-5.1,2.9-9.7,4.5-14.7,5.1
		c-8.1,0.9-14.6-2.5-16.8-8.7c-1-2.9-0.9-4.1,2.7-4c10,0.2,20,0,30,0.2C112.5,432.7,113.5,431.8,113.3,428.7z M92.6,419.4
		c-2.3-0.3-4.6-0.1-7-0.1c-1.5,0-3,0-4.5,0c-6.2,0-6.5-0.4-4.5-6.2c1.9-5.3,5.8-8.2,10.3-7.6c4.7,0.6,8.1,4.7,8.8,10.1
		C96.1,418.2,95.9,419.8,92.6,419.4z"/>
	<path class="st0" d="M239.8,428.9c-0.2-4.7-0.4-9.3-1.3-13.9c-2.9-15.4-12-23.9-25.5-24.1c-14.8-0.2-24.9,8.1-28.6,23.4
		c-0.9,3.6-1.2,7.2-1.2,10.9c-0.2,29.5,22.3,41.7,48.4,32.7c1.8-0.6,3.2-1.3,3.1-3.7c-0.2-4.4-0.1-8.9-0.1-13.9
		c-4.8,2.5-9.4,4.3-14.4,4.9c-8.4,1-15-2.5-17.2-8.8c-0.9-2.7-0.6-3.9,2.7-3.8c10,0.2,20,0,30,0.1
		C238.7,432.6,239.9,432.2,239.8,428.9z M220.6,419.4c-2.8,0-5.6,0-8.4,0c-1.5,0-3,0-4.5,0c-6.3,0-6.5-0.3-4.5-6.2
		c1.9-5.4,6.1-8.3,10.7-7.5c5,0.9,8.8,6.3,8.7,11.8C222.6,419.2,222,419.4,220.6,419.4z"/>
	<path class="st0" d="M402.9,543.9c-2,0-4,0.1-6,0c-2.2-0.2-4.6-0.4-4.3-3.5c0.3-2.6,1.4-4.5,4.7-4.6c10.7-0.4,15.4-7,12.5-17.4
		c-0.6-2.4-1.2-4.2,2.3-4c1.6,0.1,2.4-0.7,2.3-2.5c-0.1-2.2-1.7-1.6-2.9-1.7c-3.1-0.1-6.3,0.1-9.4-0.3c-5.3-0.7-10.2-0.4-13.3,4.5
		c-3.4,5.3-3.6,11.2-0.3,16.5c1.7,2.8,2.9,4.5,0.5,7.6c-2.2,2.7,1.6,7,0.4,8.8c-1.7,2.6-4.9,4.3-5.5,7.9
		c-1.4,8.1,4.1,13.3,13.8,13.3c3.9,0,7.6-0.7,10.9-2.8c4.5-2.9,6.7-9.4,4.8-15.1C411.8,545.4,407.8,543.8,402.9,543.9z M398.7,514.2
		c4.7,0.1,6.9,3.1,6.9,9c-0.1,5.8-2.4,8.5-7.4,8.4c-4.5-0.1-7.1-3.2-7.1-8.4C391.1,517.3,393.8,514,398.7,514.2z M404.9,562.1
		c-3.8,1.9-8,2-12.1,0.8c-3.4-1-4.4-3.6-4.2-7c0.3-3.6,2.1-5.9,5.6-6.5c1.6-0.3,3.3,0,4.9,0c0,0,0-0.1,0-0.1c1,0,2,0,3,0
		c3,0.1,6.1,0.2,6.9,4.1C409.8,557.3,408.4,560.3,404.9,562.1z"/>
	<path class="st0" d="M203.6,545.8c0.1-16.5,0.1-33,0.1-49.5c0-1.8,0.1-3.1-2.5-3.1c-2.5,0-2.6,1.2-2.6,3c0.1,4.7,0.1,9.3,0.1,14
		c0.2,1.5,1.7,3.2-1,4c-6.8-7.3-16.2-6.1-20.1,2.9c-3.8,8.8-3.8,17.9,0.1,26.7c3.3,7.6,12.2,9.5,18.3,4.6c1-0.8,1.3-2.4,2.9-2.4
		c1.1,1.4-0.4,5,3.3,4.2C205,549.7,203.6,547.3,203.6,545.8z M197.8,539.7c-1.2,4.4-4.2,6.3-8.4,6.4c-4,0.1-6.5-2.2-7.8-5.8
		c-2.2-6.5-2.1-13.1,0-19.6c1.2-3.8,3.8-6.3,8-6.1c4.1,0.2,6.7,2.4,8,6.4c1,3.2,1.1,6.5,1,9.9C198.7,533.8,198.7,536.7,197.8,539.7z
		"/>
	<path class="st0" d="M429.4,531.5c2.5,0,5,0,7.5,0c10.5,0,11.4-1.2,8.5-11.5c-0.2-0.8-0.5-1.6-0.9-2.3c-2.1-4.8-5.6-8-11-8.1
		c-5.3-0.1-9.1,2.6-11.6,7.2c-3.4,6.3-3.4,13.1-2.4,19.9c1.6,11.3,10.5,16.8,21.4,13.5c3.5-1,5.1-2.8,3.5-6.4
		c-2.6,0.6-5.2,1.4-7.8,1.8c-6.3,0.9-10.6-2.1-12.1-8.4C423.4,531.7,423.5,531.5,429.4,531.5z M430,515.3c3.3-1.6,6.2-0.9,8.6,1.7
		c1.9,2,2.3,4.8,2.6,7.4c0.3,2.9-2,2-3.4,2.1c-1.7,0.1-3.3,0-5,0c-0.5,0-1,0.1-1.5,0c-2.2-0.5-5.2,1.4-6.6-1.3
		C423.4,522.9,427,516.8,430,515.3z"/>
</g>
</svg>
