<?xml version="1.0" encoding="utf-8"?>
<!-- Generator: Adobe Illustrator 28.1.0, SVG Export Plug-In . SVG Version: 6.00 Build 0)  -->
<svg version="1.1" id="Ebene_1" xmlns="http://www.w3.org/2000/svg" xmlns:xlink="http://www.w3.org/1999/xlink" x="0px" y="0px"
	 viewBox="0 0 1920 163.4" style="enable-background:new 0 0 1920 163.4;" xml:space="preserve">
<style type="text/css">
	.st0{fill:#DDBC31;}
	.st1{fill:#F2CD19;}
	.st2{fill:#101011;}
</style>
<path class="st0" d="M1920,163.4c0-39.4,0-78.9,0-118.3c-57.3,18.3-145.4,42.6-254.9,56.7c-270.8,35-355-32.8-632.8-35.8
	c-277.5-3-297.8,63.5-611.9,64.2C242.6,130.5,96.8,109.5,0,91.4c0,24,0,48,0,72H1920z"/>
<path class="st1" d="M1920,163.4c0-21.5,0-42.9,0-64.4c-71.6-5.8-188.3-13.4-332.5-14.2c-469.9-2.6-561.2,71-867.2,24.5
	c-134.1-20.4-187-45.2-400-72.2C185.8,20.1,74.2,13.2,0,10c0,51.1,0,102.3,0,153.4H1920z"/>
<path class="st2" d="M1920,163.4c0-19.5,0-39.1,0-58.6c-67.7-14.1-173.7-31.4-304.3-32.4c-126.2-0.9-175.6,14.2-383.4,35.4
	c-182.7,18.6-285.2,28.9-417.9,25.4c-210.7-5.7-254.1-40-452.2-44.8C206.1,84.6,79.5,102.2,0,116.7c0,15.6,0,31.1,0,46.7H1920z"/>
</svg>
