<?xml version="1.0" encoding="utf-8"?>
<!-- Generator: Adobe Illustrator 28.1.0, SVG Export Plug-In . SVG Version: 6.00 Build 0)  -->
<svg version="1.1" id="Ebene_1" xmlns="http://www.w3.org/2000/svg" xmlns:xlink="http://www.w3.org/1999/xlink" x="0px" y="0px"
	 viewBox="0 0 283.5 27.8" style="enable-background:new 0 0 283.5 27.8;" xml:space="preserve">
<style type="text/css">
	.st0{fill:#F2CD19;}
</style>
<path class="st0" d="M0,21.6c0,0,7.3-2.9,14-3.1c6.8-0.2,12.6,0,20.9,1c11.3,1.4,33.1,6.9,44.7,3.9s12.1-3.1,18-5.1
	c6.6-2.2,20-6.6,36.6-6.4c17.7,0.2,49.8,11.4,63,10.8c1.4-0.1,6.6-0.5,10.5-1.4c3.8-0.8,9.4-2.6,17-3.2c3.2-0.3,8.3-0.8,14.2-0.6
	c1.5,0.1,6.3,0.3,12,1.1c5.7,0.8,11,2.1,15.8,2.5c10.3,0.8,16.8-0.3,16.8-0.3v7.4H0V21.6z M22.7,20.5c0.7,0.7,2,0.3,4.3,0.3
	c2.3,0,6.1,0.8,5.8,0.8s-3.1-1-6-1.3C23.8,19.9,22.1,19.8,22.7,20.5z M41.1,22.3c0,0,2.4,0.1,5.6,0.6c3.2,0.5,10.3,1.9,15.1,2.4
	c8.2,0.8,15.8,0,15.1-0.1c-0.8-0.1-9.6,0.4-17.6-0.8C56,24.1,50,23,46.9,22.7C43.6,22.3,41.1,22.3,41.1,22.3z M98.3,22.4
	c-1.7,0.5,13.3-3.2,18.5-4.2c2.1-0.4,6.2-1.1,10-1.4c3.9-0.3,8.9-0.3,8.8-0.3c0-0.1-5.8-0.5-11.2,0s-5.2,0.8-7.6,1.1
	C113,18.2,100,21.9,98.3,22.4z M84.4,23.5c-0.2,0,0.8,0.3,4.8-0.8s6.7-2.4,6.9-2.5c0.2-0.1-3.5,1.2-6.6,2.1
	C86.5,23.1,84.5,23.5,84.4,23.5z M0.5,24.1c0.1-0.1,1.9-0.8,4.8-1.7c2.9-1,6.9-1.9,6.7-1.8c-0.2,0-3.5,0.4-7.4,1.7
	S0.4,24.2,0.5,24.1z M252.2,20.3c-0.1,0.1,1.9,0.1,4.5,0.8c2.6,0.7,5.4,1.1,7.8,1.4c4,0.5,11.7-0.1,11.3-0.1
	c-0.3-0.1-8.2,0.2-12.5-0.5c-2.2-0.3-2.4-0.3-5.7-1.1C254.3,20,252.3,20.1,252.2,20.3z M210.5,21.9c-0.4,0.1-3.5,1.1-8.4,1.8
	c-4.9,0.8-8.9,0.3-8.9,0.5c0,0.2,1,0.6,6.2,0.2C204.6,24.1,210.9,21.9,210.5,21.9z M211.9,23.6c-0.2-0.1-3.4,0.9-5.7,1.2
	c-2.3,0.2-1.9,0.3-1.9,0.4s1.1,0.1,2.7-0.1C208.7,24.7,212.1,23.7,211.9,23.6z M189.9,25.2c-0.1-0.1-3.5-0.5-5.6-1.2
	c-2.1-0.7-1.8-0.4-1.9-0.3c-0.1,0.1,0.8,0.5,2.4,0.9C186.4,24.9,190,25.4,189.9,25.2z M218.1,20.6c0.1-0.2-0.3-0.3-1.9,0.1
	c-1.6,0.5-2.6,0.9-2.2,0.8c0.4-0.1,0.9-0.3,2.5-0.5C218.2,20.8,218,20.8,218.1,20.6z M249,19.7c0.2,0-2.1-0.5-3.3-0.6
	c-1.2-0.1-2-0.1-2,0.1c0,0.2,0.1,0.3,1.6,0.3C246.9,19.5,248.8,19.7,249,19.7z M131.3,13.8c0.1-0.1,2.4,0.2,7.5,0.2
	c5,0,13.6,1.6,17.2,2.4c3.6,0.8-10-2.7-16.5-2.8S131.2,13.9,131.3,13.8z"/>
<path class="st0" d="M13.9,15.9c0.1,0.1,4.6-0.2,7.2,0c7.3,0.5,17,2.2,16.6,2s-13.7-2.1-17-2.3C15.8,15.4,13.8,15.9,13.9,15.9z"/>
<path class="st0" d="M56.1,21.5c0.2,0.1,4.5,0.7,9.5,0.8c5,0.1,12.7-0.4,12.3-0.3c-0.3,0.1-5.9,1.2-13.3,0.8S55.9,21.5,56.1,21.5z"
	/>
<path class="st0" d="M79,19.1c0.1,0.1-2,0.7-3.2,0.8s-2,0-2-0.2c0-0.2,0.1-0.3,1.6-0.3C77.1,19.4,78.9,19,79,19.1z"/>
<path class="st0" d="M82.5,21c0,0.1,4.4-0.8,6.3-1.5c1.9-0.6,6.2-2.1,6.1-2.1c-0.1-0.1-4.2,1.1-6.3,1.8S82.5,20.9,82.5,21z"/>
<path class="st0" d="M129,10c0.1,0.1,4.6-0.2,7.2,0c7.3,0.5,17,2.2,16.6,2c-0.4-0.2-13.7-2.1-17-2.3C130.9,9.4,128.9,9.9,129,10z"/>
<path class="st0" d="M241.6,15c0,0-1.2,0.2-2.9,0.1s-5.8-0.6-8.2-0.5c-4.2,0.3-7.4,1.8-7,1.8c0.4,0,4.3-1.5,8.6-1.3
	c1.8,0.1,5.1,0.3,6.7,0.3C240.4,15.3,241.6,15,241.6,15z"/>
<path class="st0" d="M208,19.6c-0.2-0.1-2,0.5-4.3,0.8c-2.3,0.1-2.1,0.2-2.1,0.3c0,0.1,1.8,0.3,3.4,0
	C206.6,20.4,208.2,19.7,208,19.6z"/>
<path class="st0" d="M267.9,19.2c0,0.1-4.3,0-6.7-0.3c-2.4-0.3-5-1.3-5-1.4c0-0.1,2.7,0.5,5.1,1C263.6,18.9,267.8,19.1,267.9,19.2z"
	/>
</svg>
