<?xml version="1.0" encoding="utf-8"?>
<!-- Generator: Adobe Illustrator 28.1.0, SVG Export Plug-In . SVG Version: 6.00 Build 0)  -->
<svg version="1.1" id="Ebene_1" xmlns="http://www.w3.org/2000/svg" xmlns:xlink="http://www.w3.org/1999/xlink" x="0px" y="0px"
	 viewBox="0 0 283.5 27.8" style="enable-background:new 0 0 283.5 27.8;" xml:space="preserve">
<style type="text/css">
	.st0{fill:#F2CD19;}
</style>
<path class="st0" d="M283.5,7.1c0,0-7.3,3.1-14,3.4c-6.8,0.2-12.6,0-20.9-1.1c-11.3-1.5-33.1-7.4-44.7-4.2s-12.1,3.4-18,5.4
	c-6.6,2.3-20,7-36.6,6.8c-17.7-0.2-49.8-12.2-63-11.6c-1.4,0.1-6.6,0.6-10.5,1.5c-3.8,0.9-9.4,2.8-17,3.4c-3.2,0.3-8.3,0.8-14.2,0.7
	c-1.5-0.1-6.3-0.3-12-1.2S21.6,8,16.8,7.5C6.5,6.7,0,7.9,0,7.9V0h283.5V7.1z M260.8,8.3c-0.7-0.7-2-0.3-4.3-0.3
	c-2.3,0-6.1-0.9-5.8-0.8c0.3,0.1,3.1,1.1,6,1.4C259.7,8.9,261.4,9,260.8,8.3z M242.4,6.3c0,0-2.4-0.1-5.6-0.7
	c-3.2-0.6-10.3-2.1-15.1-2.6c-8.2-0.8-15.8,0-15.1,0.1c0.8,0.1,9.6-0.4,17.6,0.8c3.3,0.5,9.3,1.6,12.4,2
	C239.9,6.4,242.4,6.3,242.4,6.3z M185.2,6.2c1.7-0.5-13.3,3.4-18.5,4.5c-2.1,0.4-6.2,1.2-10,1.5c-3.9,0.3-8.9,0.3-8.8,0.4
	c0,0.1,5.8,0.6,11.2,0s5.2-0.8,7.6-1.2C170.5,10.8,183.5,6.7,185.2,6.2z M199.1,5.1c0.2,0-0.8-0.3-4.8,0.8s-6.7,2.6-6.9,2.7
	c-0.2,0.1,3.5-1.3,6.6-2.2C197,5.5,199,5.1,199.1,5.1z M283,4.4c-0.1,0.1-1.9,0.8-4.8,1.8s-6.9,2.1-6.7,2c0.2,0,3.5-0.4,7.4-1.8
	S283.1,4.3,283,4.4z M31.3,8.5c0.1-0.1-1.9-0.1-4.5-0.9S21.4,6.4,19,6.2C15,5.6,7.3,6.2,7.7,6.3C8,6.4,15.9,6.1,20.2,6.8
	c2.2,0.4,2.4,0.4,5.7,1.2S31.2,8.7,31.3,8.5z M73,6.7c0.4-0.1,3.5-1.2,8.4-1.9c4.9-0.8,8.9-0.4,8.9-0.6s-1-0.7-6.2-0.2
	C78.9,4.5,72.6,6.8,73,6.7z M71.6,4.9C71.8,5,75,4,77.3,3.7c2.3-0.2,1.9-0.4,1.9-0.4c0-0.1-1.1-0.1-2.7,0.1
	C74.8,3.7,71.4,4.8,71.6,4.9z M93.6,3.2c0.1,0.1,3.5,0.6,5.6,1.3s1.8,0.4,1.9,0.4s-0.8-0.6-2.4-1C97.1,3.5,93.5,3.1,93.6,3.2z
	 M65.4,8.1c-0.1,0.2,0.3,0.4,1.9-0.1s2.6-1,2.2-0.9c-0.4,0.1-0.9,0.3-2.5,0.6C65.3,8,65.5,7.9,65.4,8.1z M34.5,9.1
	c-0.2,0,2.1,0.6,3.3,0.7c1.2,0.1,2,0.1,2-0.1s-0.1-0.4-1.6-0.3C36.6,9.4,34.7,9.1,34.5,9.1z M152.2,15.5c-0.1,0.1-2.4-0.2-7.5-0.2
	c-5,0-13.6-1.8-17.2-2.6c-3.6-0.8,10,2.9,16.5,3C150.5,15.8,152.3,15.4,152.2,15.5z"/>
<path class="st0" d="M269.6,13.2c-0.1-0.1-4.6,0.2-7.2,0c-7.3-0.5-17-2.3-16.6-2.1s13.7,2.3,17,2.4
	C267.7,13.8,269.7,13.2,269.6,13.2z"/>
<path class="st0" d="M227.4,7.2c-0.2-0.1-4.5-0.7-9.5-0.9c-5-0.1-12.7,0.4-12.3,0.4c0.3-0.1,5.9-1.3,13.3-0.9S227.6,7.2,227.4,7.2z"
	/>
<path class="st0" d="M204.5,9.8c-0.1-0.1,2-0.7,3.2-0.8c1.2-0.1,2,0,2,0.2c0,0.2-0.1,0.4-1.6,0.3C206.4,9.4,204.6,9.9,204.5,9.8z"/>
<path class="st0" d="M201,7.8c0-0.1-4.4,0.9-6.3,1.6c-1.9,0.7-6.2,2.3-6.1,2.3c0.1,0.1,4.2-1.2,6.3-1.9C197,9,201,7.8,201,7.8z"/>
<path class="st0" d="M154.5,19.6c-0.1-0.1-4.6,0.2-7.2,0c-7.3-0.5-17-2.3-16.6-2.1c0.4,0.2,13.7,2.3,17,2.4
	C152.6,20.1,154.6,19.6,154.5,19.6z"/>
<path class="st0" d="M41.9,14.1c0,0,1.2-0.2,2.9-0.1c1.7,0.1,5.8,0.7,8.2,0.5c4.2-0.3,7.4-2,7-1.9c-0.4,0-4.3,1.6-8.6,1.4
	c-1.8-0.1-5.1-0.4-6.7-0.3S41.9,14.1,41.9,14.1z"/>
<path class="st0" d="M75.5,9.2c0.2,0.1,2-0.6,4.3-0.8c2.3-0.1,2.1-0.2,2.1-0.4c0-0.1-1.8-0.3-3.4,0C76.9,8.4,75.3,9.2,75.5,9.2z"/>
<path class="st0" d="M15.6,9.7c0-0.1,4.3,0,6.7,0.4c2.4,0.4,5,1.4,5,1.5s-2.7-0.6-5.1-1C19.9,10,15.7,9.7,15.6,9.7z"/>
</svg>
